/* XPM */
static char * gtv_xpm[] = {
"32 32 239 2",
"  	c None",
". 	c #EAEAD8",
"+ 	c #C2C2CB",
"@ 	c #9797BA",
"# 	c #8484B4",
"$ 	c #7777AF",
"% 	c #6F6FAB",
"& 	c #9898BB",
"* 	c #B9B9C6",
"= 	c #DCDCD2",
"- 	c #CDCDCE",
"; 	c #8787B5",
"> 	c #5959A6",
", 	c #24248E",
"' 	c #1D1D8C",
") 	c #2C2C94",
"! 	c #252590",
"~ 	c #2E2E94",
"{ 	c #3E3E9A",
"] 	c #7979B1",
"^ 	c #BCBCC9",
"/ 	c #C3C3CA",
"( 	c #8080B4",
"_ 	c #373798",
": 	c #2E2E95",
"< 	c #1E1E8D",
"[ 	c #37379B",
"} 	c #2C2C95",
"| 	c #16168A",
"1 	c #222290",
"2 	c #39399B",
"3 	c #4646A0",
"4 	c #5C5CA6",
"5 	c #A9A9BF",
"6 	c #C1C1CA",
"7 	c #6969AC",
"8 	c #3B3B9C",
"9 	c #1F1F8F",
"0 	c #292994",
"a 	c #1D1D8D",
"b 	c #303097",
"c 	c #19198C",
"d 	c #282893",
"e 	c #4242A0",
"f 	c #292993",
"g 	c #2B2B94",
"h 	c #4C4C9F",
"i 	c #A3A3BE",
"j 	c #D1D1CE",
"k 	c #8D8DB7",
"l 	c #5454A4",
"m 	c #323297",
"n 	c #21218F",
"o 	c #2D2D96",
"p 	c #1E1E8E",
"q 	c #232391",
"r 	c #323298",
"s 	c #2F2F96",
"t 	c #3C3C9D",
"u 	c #5252A0",
"v 	c #CCCCCC",
"w 	c #EEEED9",
"x 	c #C8C8CC",
"y 	c #A6A6BF",
"z 	c #9090B7",
"A 	c #8686B6",
"B 	c #3C3C9A",
"C 	c #2A2A94",
"D 	c #242491",
"E 	c #15158A",
"F 	c #40409F",
"G 	c #20208F",
"H 	c #272792",
"I 	c #272793",
"J 	c #292992",
"K 	c #7777AD",
"L 	c #D0D0CD",
"M 	c #E5E5D6",
"N 	c #DFDFD3",
"O 	c #E2E2D4",
"P 	c #7D7DB0",
"Q 	c #3E3E9B",
"R 	c #1A1A8C",
"S 	c #0E0E86",
"T 	c #1B1B8D",
"U 	c #262692",
"V 	c #3F3F99",
"W 	c #B2B2C2",
"X 	c #8B8BB8",
"Y 	c #1B1B8C",
"Z 	c #18188B",
"` 	c #2D2D95",
" .	c #333398",
"..	c #343498",
"+.	c #6D6DAC",
"@.	c #B6B6C7",
"#.	c #22228E",
"$.	c #1F1F8E",
"%.	c #37379A",
"&.	c #38389B",
"*.	c #2B2B95",
"=.	c #3F3F9A",
"-.	c #BDBDC8",
";.	c #BABAC7",
">.	c #313195",
",.	c #232390",
"'.	c #2E2E96",
").	c #17178A",
"!.	c #343499",
"~.	c #272791",
"{.	c #9898BA",
"].	c #40409B",
"^.	c #111187",
"/.	c #1C1C8D",
"(.	c #4C4CA5",
"_.	c #6464A7",
":.	c #46469D",
"<.	c #333399",
"[.	c #212190",
"}.	c #313197",
"|.	c #4C4CA0",
"1.	c #BEBEC7",
"2.	c #D4D4CF",
"3.	c #49499E",
"4.	c #3F3F9F",
"5.	c #4F4FA4",
"6.	c #9B9BBB",
"7.	c #383897",
"8.	c #0D0D85",
"9.	c #252592",
"0.	c #242490",
"a.	c #6262A7",
"b.	c #BEBEC8",
"c.	c #292991",
"d.	c #141489",
"e.	c #262693",
"f.	c #17178B",
"g.	c #4B4B9F",
"h.	c #D7D7D0",
"i.	c #B0B0C5",
"j.	c #282892",
"k.	c #41419F",
"l.	c #2F2F97",
"m.	c #3F3F9C",
"n.	c #A7A7C1",
"o.	c #A0A0BE",
"p.	c #19198B",
"q.	c #3D3D9D",
"r.	c #151589",
"s.	c #9494B9",
"t.	c #6E6EAB",
"u.	c #4141A0",
"v.	c #101087",
"w.	c #4B4BA4",
"x.	c #7C7CB0",
"y.	c #CACACC",
"z.	c #5C5CA5",
"A.	c #353599",
"B.	c #6E6EAE",
"C.	c #A6A6BE",
"D.	c #3F3F9B",
"E.	c #36369A",
"F.	c #313198",
"G.	c #49499F",
"H.	c #C1C1C9",
"I.	c #6868A8",
"J.	c #252591",
"K.	c #35359A",
"L.	c #3A3A9C",
"M.	c #303095",
"N.	c #A2A2BF",
"O.	c #C8C8CA",
"P.	c #353595",
"Q.	c #131389",
"R.	c #6A6AAA",
"S.	c #F0F0D9",
"T.	c #9C9CBB",
"U.	c #4A4AA3",
"V.	c #1D1D8E",
"W.	c #4343A0",
"X.	c #49499D",
"Y.	c #D0D0CF",
"Z.	c #C9C9CB",
"`.	c #6C6CAD",
" +	c #4A4AA2",
".+	c #9393B9",
"++	c #5050A4",
"@+	c #3E3E9D",
"#+	c #4545A0",
"$+	c #8080B2",
"%+	c #B4B4C4",
"&+	c #5B5BA8",
"*+	c #4646A1",
"=+	c #47479D",
"-+	c #B7B7C5",
";+	c #D3D3CF",
">+	c #7D7DB1",
",+	c #363698",
"'+	c #7A7AB0",
")+	c #E3E3D5",
"!+	c #E8E8D7",
"~+	c #A4A4C0",
"{+	c #45459C",
"]+	c #2A2A93",
"^+	c #1A1A8B",
"/+	c #4747A2",
"(+	c #262691",
"_+	c #1C1C8C",
":+	c #4747A1",
"<+	c #4E4EA5",
"[+	c #B5B5C5",
"}+	c #CECECE",
"|+	c #9E9EBD",
"1+	c #5B5BA4",
"2+	c #6464A9",
"3+	c #4C4C9D",
"4+	c #5B5BA5",
"5+	c #5353A1",
"6+	c #49499C",
"7+	c #5757A3",
"8+	c #5454A1",
"9+	c #5A5AA5",
"0+	c #5A5AA4",
"a+	c #5151A0",
"b+	c #50509F",
"c+	c #6060A7",
"d+	c #5555A2",
"e+	c #5656A2",
"f+	c #E7E7D6",
"g+	c #DDDDD2",
"h+	c #D9D9D0",
"i+	c #E0E0D4",
"j+	c #DADAD1",
"k+	c #D9D9D1",
"l+	c #DBDBD1",
"m+	c #DFDFD4",
"n+	c #DCDCD1",
"o+	c #DDDDD3",
"p+	c #E9E9D7",
"                                                                ",
"                . + @ # $ % & * =                               ",
"              - ; > , ' ) ! ~ { ] ^                             ",
"            / ( _ : < [ } | 1 2 3 4 5                           ",
"          6 7 8 9 0 a 2 b c d e f g h i                         ",
"        j k l m n o p q r f s t 1 } : u v                       ",
"      w x y z A B C D E d F G H F o I J K L                     ",
"        M = N O P Q R S C T p H G R U R V W                     ",
"                = X Y D d Z `  .Z U F T ..+.                    ",
"                  @.#.$.C G g g ` %.&.R *.=.-.                  ",
"                  ;.>.U g a ,.'.8 %.H ).!.~.{.                  ",
"                  v ].e '.^.9 e !.H /.Z (.U _.                  ",
"                  = :.g <.d !.F [.` *.9 }. .|.1.                ",
"                  2.3./.'.e H '.4.r f 1 n } 5.6.                ",
"                  x 7.8.9.n /.I 0.Y q R | | m a.                ",
"                  b.c.Z d d.D '.E p !.d.e.f.G g.h.              ",
"                  i.j.d } G }.b I r k.1 l.9.H m.n.              ",
"                  o.Y p.C 1 U U &.q.s r.d n q ` s.              ",
"                  t.p u.} v.p F %.d /.Z w.D Z 9.x.              ",
"                y.z.$.A.r $.s e H *.H a t }.G A.B.              ",
"                C.D.n n b !.g E.'.s f p I } !.F.G.H.            ",
"                I.J 1 v.J.K.p I K.U ,.$.d.$.L.$.M.N.            ",
"              O.P.A.f.Q.*.E n C R Y '.f.q f.,.q J R.S.          ",
"              T.~ U.$.d C /.b  .V.f W.1 l.,.D l.r X.Y.          ",
"            Z.`.A.L.r.p.d $.U d }.L.F.Q.j.p 1 g p  +N.          ",
"            .+++g 0 R b g Z G A.2 b 1 ).@+,.T D '.#+$+          ",
"          %+&+8 1 C $.@+l.f.H e }.C 1 Y *+*./.'.8 !.=+-+        ",
"        ;+>+*+d ,.r a f !.U r k.p ` C T r b U L.A.1 ,+'+)+      ",
"      !+~+{+]+U.` ]+g ^+` /+(+g /+ .f j._+g :+j.g <+]+=+[+      ",
"      }+|+_.1+2+3+4+5+6+z.7+8+4+9+5+0+u a+b+c+d+7+c+e+% y j     ",
"        f+g+g+g+h+i+j+k+g+j+l+m+j+j+m+j+l+j+n+l+o+g+n+)+p+      ",
"                                                                "};
